<?xml version="1.0" encoding="utf-8"?>
<!-- Generator: Adobe Illustrator 19.2.1, SVG Export Plug-In . SVG Version: 6.00 Build 0)  -->
<svg xmlns="http://www.w3.org/2000/svg" xmlns:xlink="http://www.w3.org/1999/xlink" version="1.1" id="Layer" x="0px" y="0px" width="512" height="512" viewBox="0 0 64 64" enable-background="new 0 0 64 64" xml:space="preserve">
<path fill="#CCE4FF" d="M32,10c-12.15,0-22,9.85-22,22c0,12.15,9.85,22,22,22s22-9.85,22-22C54,19.85,44.15,10,32,10z M39.93,25.85  L34.2,43.04c-0.43,1.28-2.24,1.28-2.67,0l-2.64-7.93l-7.93-2.64c-1.28-0.43-1.28-2.24,0-2.67l17.19-5.73  C39.25,23.71,40.29,24.75,39.93,25.85z"/>
<path fill="#007AFF" d="M37.515,22.177l-17.187,5.729C18.914,28.377,18,29.646,18,31.137c0,1.491,0.914,2.759,2.329,3.231  l6.978,2.326l2.326,6.979C30.104,45.086,31.372,46,32.863,46s2.759-0.914,3.231-2.329l5.729-17.187  C42.233,25.253,41.918,23.918,41,23C40.081,22.081,38.745,21.765,37.515,22.177z M32.863,40.715l-2.394-7.183l-7.184-2.395  l14.367-4.789L32.863,40.715z"/>
<path fill="#007AFF" d="M32,8C18.766,8,8,18.766,8,32s10.766,24,24,24s24-10.766,24-24S45.234,8,32,8z M32,52  c-11.028,0-20-8.972-20-20c0-11.028,8.972-20,20-20s20,8.972,20,20C52,43.028,43.028,52,32,52z"/>
</svg>
