<?xml version="1.0" encoding="utf-8"?>
<!-- Generator: Adobe Illustrator 23.0.3, SVG Export Plug-In . SVG Version: 6.00 Build 0)  -->
<svg version="1.1" id="Capa_1" xmlns="http://www.w3.org/2000/svg" xmlns:xlink="http://www.w3.org/1999/xlink" x="0px" y="0px"
	 viewBox="0 0 136.1 37.3" style="enable-background:new 0 0 136.1 37.3;" xml:space="preserve">
<style type="text/css">
	.st0{fill:#FFFFFF;}
</style>
<g>
	<rect x="8.7" y="19.2" class="st0" width="6.2" height="3.7"/>
	<path class="st0" d="M0.6,0C0.3,0,0,0.3,0,0.6v1.9v34.2c0,0.3,0.3,0.6,0.6,0.6s0.6-0.3,0.6-0.6V2.5V0.6C1.2,0.3,1,0,0.6,0z"/>
	<rect x="1.2" y="2.5" class="st0" width="13.7" height="18"/>
	<path class="st0" d="M14.9,5.6v14.9h-3.7c-1.4,0-2.5,1.1-2.5,2.5c0,1.4,1.1,2.5,2.5,2.5h2.5h20.5l-6.8-9.9l6.8-9.9H14.9z"/>
	<path class="st0" d="M8.7,23c0,1.4,1.1,2.5,2.5,2.5h2.5h1.2v-5h-3.7C9.8,20.5,8.7,21.6,8.7,23z"/>
</g>
<g>
	<path class="st0" d="M31.9,32.6c-0.8-0.4-1.4-1-1.9-1.7l0.7-0.8c0.5,0.7,1,1.2,1.6,1.5s1.3,0.5,2,0.5c1.1,0,1.9-0.3,2.5-1
		c0.5-0.6,0.8-1.6,0.8-2.9V17.8h-6.1v-1.1h7.3v11.6c0,1.6-0.4,2.9-1.1,3.7c-0.8,0.8-1.9,1.2-3.3,1.2C33.5,33.3,32.7,33.1,31.9,32.6z
		"/>
	<path class="st0" d="M45.7,32.4c-0.9-0.5-1.7-1.3-2.2-2.2c-0.5-0.9-0.8-2-0.8-3.2s0.3-2.3,0.8-3.2c0.5-0.9,1.3-1.7,2.2-2.2
		c0.9-0.5,2-0.8,3.1-0.8c1.2,0,2.2,0.3,3.1,0.8c0.9,0.5,1.7,1.3,2.2,2.2c0.5,0.9,0.8,2,0.8,3.2s-0.3,2.3-0.8,3.2
		c-0.5,0.9-1.3,1.7-2.2,2.2c-0.9,0.5-2,0.8-3.1,0.8C47.7,33.2,46.7,33,45.7,32.4z M51.4,31.5c0.7-0.4,1.3-1,1.8-1.8
		c0.4-0.8,0.6-1.7,0.6-2.7s-0.2-1.9-0.6-2.7c-0.4-0.8-1-1.4-1.8-1.8c-0.7-0.4-1.6-0.7-2.5-0.7c-0.9,0-1.8,0.2-2.5,0.7
		c-0.7,0.4-1.3,1-1.8,1.8c-0.4,0.8-0.6,1.7-0.6,2.7s0.2,1.9,0.6,2.7c0.4,0.8,1,1.4,1.8,1.8c0.7,0.4,1.6,0.7,2.5,0.7
		C49.8,32.2,50.7,32,51.4,31.5z"/>
	<path class="st0" d="M58.6,17.6c-0.2-0.2-0.3-0.4-0.3-0.7s0.1-0.5,0.3-0.7c0.2-0.2,0.4-0.3,0.7-0.3c0.3,0,0.5,0.1,0.7,0.3
		c0.2,0.2,0.3,0.4,0.3,0.7s-0.1,0.5-0.3,0.7c-0.2,0.2-0.4,0.3-0.7,0.3C59,17.9,58.7,17.8,58.6,17.6z M58.7,20.9h1.2v12.3h-1.2V20.9z
		"/>
	<path class="st0" d="M74.4,22.1c0.9,0.9,1.3,2.2,1.3,3.9v7.2h-1.2v-7.1c0-1.4-0.3-2.4-1-3.1c-0.7-0.7-1.7-1.1-2.9-1.1
		c-1.4,0-2.6,0.4-3.4,1.3c-0.8,0.9-1.2,2-1.2,3.5v6.5h-1.2V20.9h1.1v2.7c0.4-0.9,1.1-1.5,1.9-2c0.8-0.5,1.8-0.7,3-0.7
		C72.3,20.8,73.5,21.2,74.4,22.1z"/>
	<path class="st0" d="M83.4,32.3c-1.4-0.7-2.4-1.7-3.2-3C79.4,28,79,26.6,79,24.9c0-1.6,0.4-3.1,1.2-4.4c0.8-1.3,1.8-2.3,3.2-3
		c1.4-0.7,2.9-1.1,4.6-1.1c1.4,0,2.7,0.3,3.9,0.8c1.2,0.5,2.1,1.2,2.9,2.2l-2.4,2.3c-1.1-1.3-2.5-1.9-4.1-1.9c-1,0-1.9,0.2-2.7,0.7
		c-0.8,0.4-1.4,1.1-1.9,1.9c-0.4,0.8-0.7,1.7-0.7,2.7s0.2,1.9,0.7,2.7c0.4,0.8,1.1,1.4,1.9,1.9c0.8,0.4,1.7,0.7,2.7,0.7
		c1.6,0,3-0.7,4.1-2l2.4,2.3c-0.8,1-1.8,1.7-2.9,2.2c-1.2,0.5-2.5,0.8-3.9,0.8C86.3,33.4,84.7,33.1,83.4,32.3z"/>
	<path class="st0" d="M108.5,21.7c1,0.9,1.4,2.3,1.4,4.2v7.2h-3.7v-6.7c0-1-0.2-1.8-0.7-2.2c-0.4-0.5-1.1-0.7-1.9-0.7
		c-0.9,0-1.7,0.3-2.2,0.9c-0.5,0.6-0.8,1.4-0.8,2.6v6.3H97V15.7h3.7v6.1c0.5-0.5,1.1-0.9,1.8-1.1s1.4-0.4,2.3-0.4
		C106.3,20.3,107.5,20.8,108.5,21.7z"/>
	<path class="st0" d="M122.9,21.7c1,0.9,1.6,2.3,1.6,4.2v7.2H121v-1.6c-0.7,1.2-2,1.8-3.9,1.8c-1,0-1.8-0.2-2.5-0.5
		c-0.7-0.3-1.3-0.8-1.6-1.4c-0.4-0.6-0.6-1.2-0.6-2c0-1.2,0.4-2.1,1.3-2.8s2.3-1,4.1-1h2.9c0-0.8-0.2-1.4-0.7-1.8
		c-0.5-0.4-1.2-0.6-2.2-0.6c-0.7,0-1.3,0.1-2,0.3c-0.7,0.2-1.2,0.5-1.7,0.9l-1.3-2.6c0.7-0.5,1.5-0.9,2.5-1.1c1-0.3,2-0.4,3-0.4
		C120.3,20.3,121.8,20.8,122.9,21.7z M119.8,30.4c0.5-0.3,0.8-0.7,1-1.3v-1.3h-2.5c-1.5,0-2.3,0.5-2.3,1.5c0,0.5,0.2,0.8,0.6,1.1
		c0.4,0.3,0.9,0.4,1.5,0.4C118.7,30.9,119.3,30.7,119.8,30.4z"/>
	<path class="st0" d="M135.9,32.5c-0.4,0.3-0.8,0.5-1.3,0.6c-0.5,0.1-1.1,0.2-1.7,0.2c-1.5,0-2.7-0.4-3.5-1.2
		c-0.8-0.8-1.2-1.9-1.2-3.4v-5.2h-2v-2.8h2v-3.1h3.7v3.1h3.1v2.8h-3.1v5.1c0,0.5,0.1,0.9,0.4,1.2s0.7,0.4,1.2,0.4
		c0.6,0,1.1-0.2,1.5-0.5L135.9,32.5z"/>
</g>
</svg>
