<?xml version="1.0" standalone="no"?>
<!DOCTYPE svg PUBLIC "-//W3C//DTD SVG 20010904//EN"
 "http://www.w3.org/TR/2001/REC-SVG-20010904/DTD/svg10.dtd">
<svg version="1.0" xmlns="http://www.w3.org/2000/svg"
 width="127.000000pt" height="127.000000pt" viewBox="0 0 127.000000 127.000000"
 preserveAspectRatio="xMidYMid meet">
<metadata>
Created by potrace 1.11, written by Peter Selinger 2001-2013
</metadata>
<g transform="translate(0.000000,127.000000) scale(0.100000,-0.100000)"
fill="#000000" stroke="none">
<path d="M550 1233 c-245 -43 -438 -225 -495 -468 -17 -69 -14 -216 5 -285 25
-95 83 -193 155 -265 125 -126 250 -179 425 -180 120 0 172 12 279 64 111 53
222 168 273 281 54 119 71 269 43 387 -53 225 -231 405 -452 456 -60 14 -183
19 -233 10z"/>
</g>
</svg>
