<?xml version="1.0" encoding="utf-8"?>
<!-- Generator: Adobe Illustrator 23.0.3, SVG Export Plug-In . SVG Version: 6.00 Build 0)  -->
<svg version="1.1" id="Capa_1" xmlns="http://www.w3.org/2000/svg" xmlns:xlink="http://www.w3.org/1999/xlink" x="0px" y="0px"
	 viewBox="0 0 455.7 455.7" style="enable-background:new 0 0 455.7 455.7;" xml:space="preserve">
<style type="text/css">
	.st0{display:none;}
	.st1{display:inline;fill:#61A8DE;}
	.st2{display:inline;fill:#FFFFFF;}
	.st3{fill:#99CC99;}
	.st4{fill:#FFFFFF;}
</style>
<g class="st0">
	<path class="st1" d="M227.9,0L227.9,0c125.8,0,227.9,102,227.9,227.9v0c0,125.8-102,227.9-227.9,227.9h0C102,455.7,0,353.7,0,227.9
		v0C0,102,102,0,227.9,0z"/>
	<path class="st2" d="M358.8,100.6L54.1,219.4c-9.9,3.8-9.3,18,0.9,21l77.4,22.9l28.9,91.7c3,9.6,15.2,12.5,22.2,5.3l40-40.9
		l78.6,57.7c9.6,7.1,23.3,1.8,25.7-9.9l52-248.8C382.4,106.2,370.4,96.1,358.8,100.6z M320.6,155.8L179.1,281
		c-1.4,1.2-2.3,3-2.5,4.8l-5.4,48.4c-0.2,1.6-2.4,1.8-2.9,0.3l-22.4-72.3c-1-3.3,0.3-6.9,3.3-8.7l167.2-103.7
		C320.1,147.5,324,152.8,320.6,155.8z"/>
</g>
<g>
	<g>
		<path class="st3" d="M227.9,0L227.9,0c125.8,0,227.9,102,227.9,227.9v0c0,125.8-102,227.9-227.9,227.9h0
			C102,455.7,0,353.7,0,227.9v0C0,102,102,0,227.9,0z"/>
		<path class="st4" d="M241.7,120.1c-0.5-9-9.5-7.5-18.3-7.5C229.9,114.4,236,116.8,241.7,120.1z"/>
		<path class="st4" d="M147.4,97.5c-34.3,0-50,44.3-22.6,66.5c9.3-25.4,27.9-43.7,52.3-50.9C170.3,103.6,159.6,97.5,147.4,97.5z"/>
		<path class="st4" d="M76.6,157c1.4,4.6,3.2,9,5.4,13.1l-11.3,11.5c-3,3.1-3,8.1,0,11.2l19.8,20.3c1.4,1.5,3.4,2.3,5.5,2.3
			c2,0,4-0.8,5.5-2.3l11.2-11.5c1.7,0.9,3.6,1.5,5.3,2.3c0-0.1,0-0.3,0-0.4c0-9.4,1.1-18.3,2.9-26.6c-13.6-8.9-22.6-24.4-22.6-42.1
			c0-27.6,22-50.1,49-50.1c18.3,0,34.1,10.4,42.5,25.6c9-1.1,17.5-1.1,27.7,0.8c-1.3-4-2.9-8-4.8-11.7L224,88
			c1.5-1.5,2.3-3.5,2.3-5.6c0-2.1-0.8-4.1-2.3-5.6l-19.8-20.2c-1.5-1.5-3.5-2.3-5.5-2.3c-2,0-4,0.8-5.5,2.3L182,68.1
			c-4.1-2.2-8.4-4.1-12.9-5.4V46.4c0-4.4-3.4-7.9-7.7-7.9h-28.1c-4.3,0-7.7,3.5-7.7,7.9v16.2c-4.5,1.4-8.8,3.2-12.9,5.4l-11.3-11.5
			C100,55,98,54.3,96,54.3c-2,0-4,0.8-5.5,2.3L70.7,76.8c-1.4,1.5-2.3,3.5-2.3,5.6c0,2.1,0.8,4.1,2.3,5.6l11.3,11.5
			c-2.1,4.2-4,8.5-5.3,13.1H60.7c-4.3,0-7.7,3.5-7.7,7.9v28.6c0,4.4,3.5,7.9,7.7,7.9H76.6z"/>
		<path class="st4" d="M319.6,310.3c12.4-6.9,20.9-20.2,20.9-35.7c0-22.5-18-40.8-40-40.8c-7.8,0-14.9,2.4-21.1,6.3
			c-3.7,14.9-9.5,29.2-17,41.6C283.9,285.8,303.6,295.8,319.6,310.3z"/>
		<path class="st4" d="M402.4,259.1c0-4.7-3.8-8.5-8.4-8.5h-17.2c-1.5-4.9-3.4-9.7-5.8-14.2l12.2-12.4c1.6-1.6,2.5-3.8,2.5-6
			c0-2.3-0.9-4.4-2.5-6l-21.4-21.8c-1.6-1.7-3.8-2.5-5.9-2.5c-2.1,0-4.3,0.8-5.9,2.5l-12.2,12.4c-4.4-2.4-9-4.4-13.9-5.9v-17.5
			c0-4.7-3.7-8.5-8.3-8.5h-30.3c-2,0-3.8,0.8-5.3,2.1c2.5,9.5,3.9,19.8,3.9,30.8c0,7-0.5,14-1.5,21.1c5.6-2.1,11.6-3.4,18-3.4
			c28.9,0,52.4,24,52.4,53.5c0,18.9-9.7,35.4-24.1,44.9c10.5,11.8,18.9,25.8,24.4,41.5c0.9,0.3,1.8,0.5,2.8,0.5
			c2.1,0,4.3-0.8,5.9-2.5l21.4-21.8c1.6-1.6,2.4-3.8,2.4-6c0-2.3-0.9-4.4-2.4-6l-12.2-12.4c2.3-4.5,4.3-9.2,5.8-14.2H394
			c2.2,0,4.4-0.9,5.9-2.5c1.6-1.6,2.5-3.8,2.5-6L402.4,259.1z"/>
		<path class="st4" d="M336.1,368.7c-13-39-47.3-65.8-86.9-69.4c-13.3,14.3-29.7,23.4-48.3,23.4c-18.6,0-35-9.1-48.2-23.4
			c-39.6,3.6-73.9,30.5-86.9,69.4l-7.2,21.6c-2.1,6.2-1.1,13,2.7,18.4c3.7,5.3,9.8,8.5,16.2,8.5h246.9c6.4,0,12.4-3.2,16.2-8.5
			c3.7-5.3,4.7-12.2,2.7-18.4L336.1,368.7z"/>
		<path class="st4" d="M136.7,203.4c0,48.3,28.8,100.2,64.4,100.2c35.6,0,64.4-51.9,64.4-100.2C265.4,103.2,136.7,103,136.7,203.4z"
			/>
	</g>
</g>
</svg>
