<svg height="500pt" viewBox="0 0 500 500.16" width="500pt" xmlns="http://www.w3.org/2000/svg"><path d="m423.441406 387.441406c.398438 2 .636719 4.078125.636719 6.160156 0 8.398438-3.359375 16-8.878906 21.519532-5.519531 5.519531-13.121094 8.878906-21.519531 8.878906-2.078126 0-4.160157-.238281-6.160157-.640625-4.078125-.800781-7.839843-2.480469-11.28125-4.878906l-48.160156-33.761719-127.757813-89.757812-107.199218-75.199219c-.5625-.402344-1.121094-.800781-1.679688-1.28125-25.839844-18.480469-46.5625-42.71875-60.800781-70.160157-14.640625-28.160156-22.5625-59.679687-22.5625-92.242187 0-26.558594 21.523437-48.078125 48.082031-48.078125 64.398438 0 124.960938 31.121094 162.398438 83.359375.480468.5625.882812 1.121094 1.28125 1.679687l75.199218 107.199219 89.761719 127.761719 33.757813 48.160156c2.402344 3.441406 4.082031 7.199219 4.882812 11.28125zm0 0" fill="#e6e9ed"/><g fill="#ff826e"><path d="m387.519531 423.359375-19.441406 64.640625-8.957031-5.359375c-19.28125-11.601563-31.042969-32.402344-31.042969-54.878906v-43.042969l48.160156 33.761719c3.441407 2.398437 7.203125 4.078125 11.28125 4.878906zm0 0"/><path d="m482.71875 359.039062 5.359375 8.960938-64.636719 19.441406c-.800781-4.082031-2.480468-7.839844-4.882812-11.28125l-33.757813-48.160156h43.039063c22.480468 0 43.28125 11.761719 54.878906 31.039062zm0 0"/><path d="m200.320312 294.960938-40.242187 161.039062-16.316406-8.160156c-19.683594-9.839844-32.960938-29.121094-35.121094-51.121094l-17.199219-178.238281c.558594.480469 1.117188.878906 1.679688 1.28125zm0 0"/><path d="m447.921875 143.679688 8.15625 16.320312-161.039063 40.238281-75.199218-107.199219c-.398438-.558593-.800782-1.117187-1.28125-1.679687l178.242187 17.199219c22 2.160156 41.277344 15.441406 51.121094 35.121094zm0 0"/></g><path d="m297.441406 265.359375-25.363281-25.359375-89.359375-89.359375c-4.238281-4.242187-10-6.640625-16-6.640625-12.480469 0-22.640625 10.160156-22.640625 22.640625 0 6 2.402344 11.757813 6.640625 16l89.359375 89.359375 25.363281 25.359375c4.238282 4.242187 10 6.640625 16 6.640625 6.238282 0 11.917969-2.558594 16-6.640625 4.078125-4.078125 6.636719-9.757813 6.636719-16 0-6-2.398437-11.757813-6.636719-16zm0 0" fill="#fcd770"/><path d="m136.078125 78.640625c0 6-2.398437 11.757813-6.636719 16l-34.722656 34.71875c-4.238281 4.242187-10 6.640625-16 6.640625-6.238281 0-11.917969-2.558594-16-6.640625-4.078125-4.078125-6.640625-9.757813-6.640625-16 0-6 2.402344-11.757813 6.640625-16l34.722656-34.71875c4.238282-4.242187 10-6.640625 16-6.640625 6.238282 0 11.917969 2.558594 16 6.640625 4.078125 4.078125 6.636719 9.757813 6.636719 16zm0 0" fill="#69d6f4"/><path d="m302.523438 152.148438 15.6875-3.140626 3.140624 15.691407-15.691406 3.136719zm0 0"/><path d="m333.871094 145.871094 15.691406-3.140625 3.140625 15.6875-15.6875 3.144531zm0 0"/><path d="m365.25 139.601562 15.6875-3.140624 3.140625 15.6875-15.6875 3.140624zm0 0"/><path d="m148.769531 317.84375 3.515625-15.609375 15.609375 3.511719-3.515625 15.609375zm0 0"/><path d="m134.710938 380.277344 3.515624-15.609375 15.609376 3.515625-3.515626 15.609375zm0 0"/><path d="m141.742188 349.054688 3.515624-15.609376 15.609376 3.515626-3.515626 15.609374zm0 0"/><path d="m113.449219 48c-8.175781 0-15.875 3.183594-21.65625 8.976562l-34.746094 34.742188c-5.78125 5.785156-8.96875 13.472656-8.96875 21.648438 0 16.898437 13.738281 30.632812 30.632813 30.632812 8.175781 0 15.875-3.183594 21.65625-8.976562l34.746093-34.742188c5.78125-5.785156 8.964844-13.472656 8.964844-21.648438 0-16.898437-13.734375-30.632812-30.628906-30.632812zm10.34375 40.976562-34.746094 34.742188c-2.757813 2.761719-6.429687 4.28125-10.335937 4.28125-8.070313 0-14.632813-6.558594-14.632813-14.632812 0-3.902344 1.523437-7.574219 4.289063-10.34375l34.746093-34.742188c2.757813-2.761719 6.429688-4.28125 10.335938-4.28125 8.070312 0 14.628906 6.558594 14.628906 14.632812 0 3.902344-1.519531 7.574219-4.285156 10.34375zm0 0"/><path d="m500.230469 372.710938-10.644531-17.757813c-12.9375-21.5625-36.59375-34.953125-61.738282-34.953125h-38.925781l-80.617187-114.808594 159.390624-39.847656-12.625-25.246094c-11.160156-22.3125-32.636718-37.066406-57.460937-39.464844l-174.816406-16.921874c-39.152344-52.488282-100.960938-83.710938-166.664063-83.710938-30.90625 0-56.050781 25.144531-56.050781 56.046875 0 65.695313 31.226563 127.511719 83.714844 166.664063l16.917969 174.816406c2.402343 24.832031 17.152343 46.304687 39.464843 57.464844l25.25 12.625 39.847657-159.394532 114.804687 80.617188v38.929687c0 25.152344 13.394531 48.804688 34.960937 61.734375l17.753907 10.65625 20.453125-68.191406c.152344 0 .296875.03125.441406.03125 21.167969 0 38.390625-17.222656 38.390625-38.398438 0-.152343-.03125-.289062-.03125-.441406zm-59.46875-225.464844 3.703125 7.410156-146.007813 36.503906-63.320312-90.183594 160.925781 15.574219c19.3125 1.875 36.015625 13.34375 44.699219 30.695313zm-286.027344 297.136718-7.40625-3.703124c-17.351563-8.671876-28.832031-25.382813-30.695313-44.695313l-15.578124-160.929687 90.183593 63.320312zm208.640625 31.457032-.101562-.0625c-16.777344-10.058594-27.195313-28.457032-27.195313-48.007813v-27.699219l35.546875 24.960938c1.894531 1.328125 3.910156 2.417969 5.976562 3.375zm30.3125-59.839844c-4.632812 0-9.078125-1.40625-12.863281-4.0625l-283.070313-198.753906c-51.144531-35.902344-81.675781-94.648438-81.675781-157.136719 0-22.078125 17.96875-40.046875 40.050781-40.046875 62.488282 0 121.222656 30.527344 157.136719 81.671875l198.742187 283.070313c2.664063 3.777343 4.070313 8.234374 4.070313 12.859374 0 12.351563-10.046875 22.398438-22.390625 22.398438zm6.464844-80h27.695312c19.550782 0 37.960938 10.414062 48.015625 27.183594l.066407.105468-47.441407 14.230469c-.960937-2.0625-2.046875-4.078125-3.375-5.976562zm0 0"/><path d="m188.367188 144.976562c-5.792969-5.792968-13.480469-8.976562-21.65625-8.976562-16.894532 0-30.632813 13.734375-30.632813 30.632812 0 8.175782 3.1875 15.871094 8.976563 21.65625l114.746093 114.742188c5.785157 5.785156 13.472657 8.96875 21.648438 8.96875 16.894531 0 30.628906-13.742188 30.628906-30.625 0-8.183594-3.183594-15.871094-8.972656-21.65625zm51.710937 74.335938 20.691406 20.6875-20.691406 20.6875-20.6875-20.6875zm-32 9.375-20.6875-20.6875 20.6875-20.6875 20.691406 20.6875zm-56-62.054688c0-8.074218 6.5625-14.632812 14.632813-14.632812 3.90625 0 7.578124 1.519531 10.34375 4.289062l19.714843 19.710938-20.691406 20.6875-19.710937-19.710938c-2.765626-2.769531-4.289063-6.441406-4.289063-10.34375zm129.371094 129.367188c-3.90625 0-7.585938-1.519531-10.34375-4.28125l-19.714844-19.71875 20.6875-20.6875 19.722656 19.71875c2.71875 2.730469 4.277344 6.488281 4.277344 10.34375 0 8.066406-6.558594 14.625-14.628906 14.625zm0 0"/></svg>