<svg height="493pt" viewBox="0 0 493 493.65552" width="493pt" xmlns="http://www.w3.org/2000/svg"><path d="m100.96875 27.359375-73.28125 73.28125c-.640625-1.359375-1.199219-2.640625-1.757812-4-11.523438-27.839844-17.601563-57.921875-17.601563-88.640625 32.160156 0 63.679687 6.71875 92.640625 19.359375zm0 0" fill="#e6e9ed"/><path d="m320.328125 224 43.601563 43.601562c-7.601563-2.402343-15.601563-3.601562-23.683594-3.601562h-43.917969l-33.359375-33.359375c-14.480469-14.480469-34.160156-22.640625-54.640625-22.640625 0 20.480469 8.160156 40.160156 22.640625 54.640625l33.359375 33.359375v43.921875c0 8.078125 1.199219 16.078125 3.601563 23.679687l-68.960938-68.960937-122.722656-122.71875c-4-4-7.839844-8.160156-11.4375-12.402344l31.519531-31.519531 64 72 40-40-72-64 31.519531-31.519531c4.238282 3.597656 8.398438 7.441406 12.398438 11.441406l122.722656 122.71875zm0 0" fill="#e6e9ed"/><path d="m448.328125 288-32 32-17.601563-17.601562 9.601563-6.398438-18.082031-14.480469c-7.839844-6.320312-16.796875-11.039062-26.316406-13.917969l-59.601563-59.601562 32-32zm0 0" fill="#ffeaa7"/><path d="m384.328125 352-32 32-112-112 32-32zm0 0" fill="#ffeaa7"/><path d="m320.328125 416-32 32-112-112 32-32 59.601563 59.601562c2.878906 9.519532 7.597656 18.476563 13.917968 26.320313l14.480469 18.078125 6.398437-9.601562zm0 0" fill="#ffeaa7"/><g fill="#ff826e"><path d="m472.328125 232-48 32-64-64h43.917969c18.160156 0 35.839844 6.160156 50 17.519531zm0 0"/><path d="m408.328125 296-9.601563 6.398438-38.398437 25.601562-64-64h43.917969c8.082031 0 16.082031 1.199219 23.683594 3.601562 9.519531 2.878907 18.476562 7.597657 26.316406 13.917969zm0 0"/><path d="m336.328125 176-32 32-9.359375-9.359375c-7.28125-7.28125-12.882812-15.761719-16.722656-25.039063-3.839844-9.28125-5.917969-19.363281-5.917969-29.601562 20.480469 0 40.160156 8.160156 54.640625 22.640625zm0 0"/><path d="m328.328125 360-25.601563 38.398438-6.398437 9.601562-14.480469-18.078125c-6.320312-7.84375-11.039062-16.800781-13.917968-26.320313-2.402344-7.601562-3.601563-15.601562-3.601563-23.679687v-43.921875zm0 0"/><path d="m272.328125 240-32 32-9.359375-9.359375c-14.480469-14.480469-22.640625-34.160156-22.640625-54.640625 20.480469 0 40.160156 8.160156 54.640625 22.640625zm0 0"/><path d="m264.328125 424-32 48-14.480469-18.078125c-11.359375-14.160156-17.519531-31.84375-17.519531-50v-43.921875zm0 0"/><path d="m208.328125 304-32 32-9.359375-9.359375c-7.28125-7.28125-12.882812-15.761719-16.722656-25.039063-3.839844-9.28125-5.917969-19.363281-5.917969-29.601562 20.480469 0 40.160156 8.160156 54.640625 22.640625zm0 0"/></g><path d="m200.328125 160-40 40-64-72 32-32zm0 0" fill="#69d6f4"/><path d="m159.847656 64.480469-95.039062 95.039062c-15.441406-17.757812-27.839844-37.597656-37.121094-58.878906l73.28125-73.28125c21.277344 9.28125 41.117188 21.679687 58.878906 37.121094zm0 0" fill="#ffeaa7"/><path d="m352.328125 395.3125 43.3125-43.3125-22.761719-22.761719 24.824219-16.550781 18.625 18.625 43.3125-43.3125-22.761719-22.761719 48.984375-32.652343-26.625-21.304688c-15.542969-12.433594-35.070312-19.28125-54.972656-19.28125h-40.625l-31.03125-31.03125c-16.105469-16.105469-37.503906-24.96875-60.28125-24.96875h-8v8c0 4.710938.472656 9.34375 1.214844 13.902344l-87.679688-87.679688c-45.289062-45.285156-105.488281-70.222656-169.535156-70.222656h-8v8c0 64.046875 24.9375 124.246094 70.222656 169.535156l87.671875 87.671875c-4.550781-.734375-9.183594-1.207031-13.894531-1.207031h-8v8c0 22.777344 8.863281 44.175781 24.96875 60.28125l31.03125 31.03125v40.625c0 19.902344 6.847656 39.429688 19.28125 54.972656l21.300781 26.625 32.65625-48.984375 22.761719 22.761719 43.3125-43.3125-18.617187-18.617188 16.550781-24.824218zm0-22.625-100.6875-100.6875 20.6875-20.6875 100.6875 100.6875zm-115.71875-115.71875c-11.050781-11.058594-17.90625-25.175781-19.769531-40.457031 15.273437 1.855469 29.398437 8.71875 40.457031 19.769531l3.71875 3.71875-20.6875 20.6875zm79.03125 15.03125h24.625c16.285156 0 32.261719 5.601562 44.972656 15.785156l9.546875 7.628906-33.441406 22.296876zm100.6875 36.6875-5.046875-5.046875 10.582031-7.054687-26.625-21.304688c-8.078125-6.457031-17.238281-11.371094-26.957031-14.640625l-52.640625-52.640625 20.6875-20.6875 100.6875 100.6875zm-12.0625-100.6875c16.285156 0 32.261719 5.601562 44.972656 15.785156l9.546875 7.628906-33.441406 22.296876-45.703125-45.710938zm-123.425781-55.488281c15.273437 1.855469 29.398437 8.71875 40.457031 19.769531l3.71875 3.71875-20.6875 20.6875-3.71875-3.71875c-11.050781-11.058594-17.90625-25.175781-19.769531-40.457031zm-152.183594-45.527344 60.015625 53.351563-28 28-53.351563-60.015626zm-63.335938 40.710937c-11.25-14.015624-20.664062-29.183593-28.144531-45.230468l65.609375-65.609375c16.039063 7.480469 31.214844 16.898437 45.230469 28.144531zm21.558594-117.558593-56.40625 56.40625c-8.351562-22.304688-13.136718-46.007813-14-70.398438 24.390625.863281 48.09375 5.648438 70.40625 13.992188zm-5.015625 136.085937c-2.078125-2.078125-4.085937-4.222656-6.078125-6.367187l20.199219-20.199219 64 72 52-52-72-64 20.199219-20.199219c2.152344 1.992188 4.289062 4 6.367187 6.078125l174.496094 174.496094c-.261719 0-.519531-.03125-.78125-.03125h-40.625l-31.03125-31.03125c-16.105469-16.105469-37.503906-24.96875-60.28125-24.96875h-8v8c0 22.777344 8.863281 44.175781 24.96875 60.28125l31.03125 31.03125v40.625c0 .261719.03125.519531.03125.78125zm70.976563 114.289063c15.273437 1.855469 29.398437 8.71875 40.457031 19.769531l3.71875 3.71875-20.6875 20.6875-3.71875-3.71875c-11.050781-11.058594-17.90625-25.175781-19.769531-40.457031zm78.902344 177.953125-7.628907-9.542969c-10.183593-12.722656-15.785156-28.699219-15.785156-44.984375v-24.625l45.703125 45.703125zm77.273437-42.464844-20.6875 20.6875-100.6875-100.6875 20.6875-20.6875 52.648437 52.648438c3.269532 9.71875 8.183594 18.878906 14.640626 26.960937l21.300781 26.621094 7.058593-10.582031zm-13.273437-21.535156-7.628907-9.542969c-10.183593-12.722656-15.785156-28.699219-15.785156-44.984375v-24.625l45.703125 45.703125zm0 0"/><path d="m466.664062 477.65625 11.316407-11.3125 15.996093 16-11.3125 11.3125zm0 0"/><path d="m378.667969 389.65625 11.3125-11.3125 79.996093 80-11.3125 11.3125zm0 0"/><path d="m466.664062 437.65625 11.316407-11.3125 15.996093 16-11.3125 11.3125zm0 0"/><path d="m402.664062 373.65625 11.3125-11.3125 55.996094 55.996094-11.3125 11.3125zm0 0"/><path d="m426.664062 477.65625 11.316407-11.3125 15.996093 16-11.3125 11.3125zm0 0"/><path d="m362.664062 413.65625 11.3125-11.3125 55.996094 55.996094-11.3125 11.3125zm0 0"/></svg>