<?xml version="1.0" encoding="utf-8"?>
<!-- Generator: Adobe Illustrator 23.0.3, SVG Export Plug-In . SVG Version: 6.00 Build 0)  -->
<svg version="1.1" id="Layer_1" xmlns="http://www.w3.org/2000/svg" xmlns:xlink="http://www.w3.org/1999/xlink" x="0px" y="0px"
	 viewBox="0 0 768 824" style="enable-background:new 0 0 768 824;" xml:space="preserve">
<style type="text/css">
	.st0{fill:#FFFFFF;}
</style>
<g>
	<g>
		<g>
			<g>
				<path class="st0" d="M513.3,277.9L302.7,407.6c-11.9,7.4-17.6,21.9-13.7,35.3l22.8,80c1.9,6.8,8,11.4,15,11.4c0.4,0,0.8,0,1.2,0
					c7.5-0.5,13.4-6.1,14.4-13.5l5.9-43.9c0.8-5.9,3.6-11.4,8-15.5L530,299.9c5.3-4.9,5.9-12.8,1.6-18.5
					C527.3,275.6,519.4,274.2,513.3,277.9z M342.3,446.5c-7.8,7.3-12.9,17.1-14.3,27.7l-2.9,21.3l-16.5-58.1
					c-1.3-4.7,0.6-9.8,4.8-12.4l154.3-95L342.3,446.5z"/>
				<path class="st0" d="M631.7,193.4c-6.6-5.6-15.7-7.1-23.7-4L143.1,368.7c-9.2,3.6-15.1,12.2-15.1,22.1c0,9.9,6.1,18.5,15.3,22
					l108.6,40.5l42.4,136.2c2.3,7.5,8.2,13.3,15.7,15.6c7.5,2.3,15.6,0.6,21.7-4.3l63.1-51.5c3-2.5,7.4-2.6,10.5-0.3l113.9,82.7
					c4.1,3,8.9,4.5,13.8,4.5c2.9,0,5.7-0.5,8.5-1.6c7.5-2.9,12.9-9.3,14.6-17.2l83.4-401.3C641.3,207.7,638.3,199,631.7,193.4z
					 M619.5,212l-83.4,401.3c-0.3,1.5-1.3,2.1-1.9,2.3c-0.6,0.2-1.8,0.5-3-0.4l-113.9-82.7c-5.1-3.7-11.1-5.5-17.1-5.5
					c-6.5,0-13,2.2-18.3,6.5L318.7,585c-1.1,0.9-2.3,0.8-2.9,0.6c-0.6-0.2-1.7-0.7-2.1-2.1l-43.8-141c-0.9-3-3.2-5.4-6.2-6.5
					l-113.3-42.3c-1.7-0.6-2.1-2-2.1-3c0-1,0.3-2.3,2-3l464.9-179.3c0,0,0,0,0,0c1.5-0.6,2.6,0.1,3.2,0.5
					C619,209.4,619.9,210.4,619.5,212z"/>
			</g>
		</g>
	</g>
	<g>
		<g>
			<path class="st0" d="M555.5,408.1c-5.5-1.2-10.9,2.3-12.1,7.8l-1.5,7.1c-1.2,5.5,2.3,10.9,7.8,12.1c0.7,0.2,1.5,0.2,2.2,0.2
				c4.7,0,8.9-3.3,10-8l1.6-7.1C564.5,414.8,561,409.3,555.5,408.1z"/>
		</g>
	</g>
	<g>
		<g>
			<path class="st0" d="M545.3,455.1c-5.5-1.2-10.9,2.3-12.1,7.8L509.7,571c-1.2,5.5,2.3,10.9,7.8,12.1c0.7,0.2,1.5,0.2,2.2,0.2
				c4.7,0,8.9-3.3,10-8l23.5-108.1C554.3,461.7,550.8,456.3,545.3,455.1z"/>
		</g>
	</g>
</g>
</svg>
