<?xml version="1.0" encoding="utf-8"?>
<!-- Generator: Adobe Illustrator 23.0.3, SVG Export Plug-In . SVG Version: 6.00 Build 0)  -->
<svg version="1.1" id="Capa_1" xmlns="http://www.w3.org/2000/svg" xmlns:xlink="http://www.w3.org/1999/xlink" x="0px" y="0px"
	 viewBox="0 0 455.7 455.7" style="enable-background:new 0 0 455.7 455.7;" xml:space="preserve">
<style type="text/css">
	.st0{fill:#7D3DAF;}
	.st1{fill:#FFFFFF;}
</style>
<g>
	<path class="st0" d="M227.9,0L227.9,0c125.8,0,227.9,102,227.9,227.9v0c0,125.8-102,227.9-227.9,227.9h0C102,455.7,0,353.7,0,227.9
		v0C0,102,102,0,227.9,0z"/>
	<g>
		<path class="st1" d="M372,146.9l-0.1-0.4c-7.3-29.4-40.1-61-70.2-67.6l-0.3-0.1c-48.8-9.3-98.2-9.3-146.9,0l-0.4,0.1
			c-30.1,6.6-62.9,38.2-70.2,67.6l-0.1,0.4c-9,41.1-9,82.8,0,123.9l0.1,0.4c7,28.2,37.4,58.3,66.4,66.6v32.9
			c0,11.9,14.5,17.7,22.7,9.1l33.3-34.6c7.2,0.4,14.4,0.6,21.7,0.6c24.5,0,49.1-2.3,73.5-7l0.3-0.1c30.1-6.6,63-38.1,70.2-67.6
			l0.1-0.4C381,229.7,381,188,372,146.9z M345.7,264.8c-4.9,19.2-29.8,43.1-49.6,47.5c-25.9,4.9-52,7-78.1,6.3c-0.5,0-1,0.2-1.4,0.6
			c-3.7,3.8-24.3,24.9-24.3,24.9l-25.9,26.5c-1.9,2-5.2,0.6-5.2-2.1v-54.4c0-0.9-0.6-1.7-1.5-1.8c0,0,0,0,0,0
			c-19.8-4.4-44.7-28.3-49.6-47.5c-8.1-37.1-8.1-74.8,0-112c4.9-19.2,29.8-43.1,49.6-47.5c45.3-8.6,91.2-8.6,136.4,0
			c19.8,4.4,44.7,28.3,49.6,47.5C353.8,190,353.8,227.7,345.7,264.8z"/>
		<path class="st1" d="M270.9,289.9c-3-0.9-5.9-1.5-8.6-2.7c-27.9-11.6-53.6-26.5-74-49.4c-11.6-13-20.6-27.7-28.3-43.3
			c-3.6-7.4-6.7-15-9.8-22.7c-2.8-6.9,1.3-14.1,5.8-19.4c4.1-4.9,9.5-8.7,15.2-11.4c4.5-2.2,8.9-0.9,12.2,2.9
			c7.1,8.2,13.6,16.9,18.9,26.5c3.3,5.9,2.4,13.1-3.5,17.1c-1.4,1-2.7,2.1-4.1,3.2c-1.2,1-2.3,1.9-3.1,3.2c-1.5,2.4-1.5,5.2-0.6,7.8
			c7.3,20,19.5,35.5,39.6,43.9c3.2,1.3,6.4,2.9,10.2,2.5c6.2-0.7,8.2-7.5,12.6-11.1c4.2-3.5,9.7-3.5,14.3-0.6c4.6,2.9,9,6,13.4,9.2
			c4.3,3.1,8.6,6.1,12.6,9.6c3.8,3.4,5.2,7.8,3,12.4c-4,8.4-9.7,15.4-18,19.9C276.4,288.7,273.6,289.1,270.9,289.9
			C267.9,289,273.6,289.1,270.9,289.9z"/>
		<path class="st1" d="M227.9,131.5c36.5,1,66.5,25.3,72.9,61.4c1.1,6.2,1.5,12.4,2,18.7c0.2,2.6-1.3,5.1-4.1,5.2
			c-2.9,0-4.2-2.4-4.4-5c-0.4-5.2-0.6-10.4-1.4-15.6c-3.8-27.2-25.5-49.7-52.5-54.5c-4.1-0.7-8.2-0.9-12.4-1.4
			c-2.6-0.3-6-0.4-6.6-3.7c-0.5-2.7,1.8-4.9,4.4-5C226.5,131.4,227.2,131.5,227.9,131.5C264.5,132.5,227.2,131.5,227.9,131.5z"/>
		<path class="st1" d="M283.4,203.4c-0.1,0.5-0.1,1.5-0.4,2.5c-1,3.7-6.5,4.1-7.8,0.4c-0.4-1.1-0.4-2.3-0.4-3.5
			c0-7.7-1.7-15.5-5.6-22.2c-4-6.9-10.1-12.7-17.3-16.2c-4.3-2.1-9-3.4-13.8-4.2c-2.1-0.3-4.2-0.6-6.3-0.8c-2.5-0.4-3.9-2-3.8-4.5
			c0.1-2.3,1.8-4,4.4-3.9c8.4,0.5,16.5,2.3,23.9,6.2c15.1,8,23.8,20.7,26.3,37.6c0.1,0.8,0.3,1.5,0.4,2.3
			C283.2,199,283.3,200.9,283.4,203.4C283.4,203.9,283.3,200.9,283.4,203.4z"/>
		<path class="st1" d="M260.7,202.5c-3.1,0.1-4.7-1.6-5-4.4c-0.2-2-0.4-3.9-0.9-5.8c-0.9-3.7-2.9-7.2-6.1-9.5
			c-1.5-1.1-3.2-1.9-4.9-2.4c-2.2-0.6-4.6-0.5-6.8-1c-2.4-0.6-3.8-2.6-3.4-4.8c0.3-2.1,2.4-3.7,4.6-3.5c14.2,1,24.3,8.3,25.7,25
			c0.1,1.2,0.2,2.4,0,3.5C263.5,201.5,262.1,202.4,260.7,202.5C257.7,202.6,262.1,202.4,260.7,202.5z"/>
	</g>
</g>
</svg>
