<?xml version="1.0" encoding="utf-8"?>
<!-- Generator: Adobe Illustrator 23.0.3, SVG Export Plug-In . SVG Version: 6.00 Build 0)  -->
<svg version="1.1" id="Layer_1" xmlns="http://www.w3.org/2000/svg" xmlns:xlink="http://www.w3.org/1999/xlink" x="0px" y="0px"
	 viewBox="0 0 768 824" style="enable-background:new 0 0 768 824;" xml:space="preserve">
<style type="text/css">
	.st0{fill:#FFFFFF;}
</style>
<g>
	<g>
		<g>
			<path class="st0" d="M557.4,383.2c0.6-74.3-62.4-142.5-140.6-151.8l-15.9-1.9c-0.4-0.1-0.8-0.1-1.2-0.1
				c-16.2,0-27.4,9.5-30.1,25.3c-1.9,11.1,1.5,18.6,4.7,23c7.5,10.2,19.6,11.9,27.5,13l0.2,0c1.8,0.2,3.5,0.5,4.6,0.7
				c62,13.8,80.6,33.3,90.8,94.6c0.2,1.1,0.3,2.9,0.4,4.6c0.3,4.5,0.7,11.9,4.1,18.8c4.7,9.5,13.6,14.8,24.9,14.8c2,0,4-0.2,6.2-0.5
				c10.6-1.6,18.4-7.6,21.9-16.9c2.6-6.7,2.4-13.5,2.2-17.7L557.4,383.2C557.4,383.3,557.4,383.3,557.4,383.2z M536.9,389.6
				c0.4,10.9-1.5,13.1-6.8,14c-1.1,0.2-2.2,0.3-3.1,0.3c-5.3,0-7.9-1.4-8.7-14.4c-0.1-2.2-0.3-4.6-0.6-6.7
				c-6-36.4-15.5-59.1-31.4-75.8c-16-16.6-38.4-27.2-75-35.4c-2-0.4-4.1-0.7-6.3-1l-0.2,0c-5.4-0.7-11.5-1.6-13.9-4.8
				c-0.5-0.6-1.9-2.6-1.1-7.5c1.2-7,5.2-8.2,9.4-8.3l15.2,1.9c68.1,8.2,123.1,67.1,122.6,131.4l-0.1,6.1
				C536.9,389.3,536.9,389.4,536.9,389.6z"/>
		</g>
	</g>
	<g>
		<g>
			<path class="st0" d="M633.4,386.9l0-0.2c-0.1-1.6-0.1-3.1-0.1-4.3c0.7-55.7-22.5-112.3-63.7-155.4
				c-41.1-43.1-96.6-68.9-152.3-70.8l-12.3-0.3c-0.1,0-0.2,0-0.3,0c-18.5,0-30.6,11.4-31.7,29.7c-0.7,11.6,4.4,20.6,14.1,25.5
				c6.9,3.5,14.6,4,19.1,4.3c1.7,0.1,3.4,0.2,4.5,0.4c103.9,16,149.5,63,162.7,167.7c0.2,1.3,0.2,3.4,0.2,5.4
				c0.1,4.8,0.2,12.9,3.5,20.3c4.6,10.3,13.8,16,26,16.3l0.6,0c0,0,0.1,0,0.1,0c8.7,0,16.1-2.9,21.5-8.5
				C634.3,407.8,633.8,395.2,633.4,386.9z M610.7,403.1c-0.5,0.5-2.1,2.2-6.7,2.2l-0.4,0c-6.4-0.1-9.2-2.4-9.4-16.5
				c0-2.6-0.1-5.2-0.4-7.6c-7.3-58-24.2-98.8-53.1-128.6c-28.9-29.8-69.2-47.8-126.7-56.7c-2-0.3-4.1-0.5-6.1-0.6
				c-14.1-1-14.6-3.9-14.4-8.4c0.5-8.6,4.8-10.4,11.2-10.5l12.1,0.3c105.8,3.6,197.5,99.6,196.2,205.5c0,1.7,0.1,3.5,0.1,5.4l0,0.2
				C613.3,393.6,613.6,400,610.7,403.1z"/>
		</g>
	</g>
	<g>
		<g>
			<path class="st0" d="M584.6,514.9c-2.1-1.6-4.5-3.5-6.7-5.2c-0.1-0.1-0.3-0.2-0.4-0.3l-44-31.9c0,0-0.1-0.1-0.1-0.1
				c-17.3-12.2-33.2-18.1-48.5-18.1c-21.4,0-39.8,11.4-54.6,33.8c-4.8,7.2-9,8.2-12.5,8.2c-3.5,0-7.9-1.2-12.7-3.3
				c-47.8-21.7-81.9-54.8-101.3-98.4c-8.9-20-4.1-28.4,7.1-36c10.7-7.3,33.1-22.4,31.4-52.1c-1.2-21.7-28.1-60.1-36.4-71.3
				c-8.2-11.2-36.7-48.5-57-55.9c-12.9-4.8-26.5-4.8-40.2-0.2c-31.8,10.7-54.7,29.7-66.3,55c-11.2,24.5-10.9,53,1.1,82.5
				c32,78.6,77.1,147.2,133.9,203.8c66.7,66.4,133.3,110.6,203.6,135c7,2.4,21,6.7,28.9,7.7c0.4,0.1,0.9,0.1,1.3,0.1
				c19.9,0,41.9-8.4,61.9-23.6c19.8-15.1,34.6-34.5,41.8-54.8C629.5,549.2,602.5,528.5,584.6,514.9z M596,582.8
				c-11.9,33.7-51.7,64.4-83.8,64.8c-6-0.9-17.7-4.4-24.2-6.7c-67.4-23.4-131.5-66-195.9-130.2c-54.9-54.7-98.4-121-129.4-197.1
				c-9.8-24.1-10.3-47-1.5-66.3c9.2-20,27.9-35.3,54.2-44.2c4.6-1.6,9.2-2.3,13.6-2.3c4.5,0,8.8,0.8,13,2.3
				c7.7,2.8,25.9,19.3,47.6,48.9c21.7,29.5,32,52,32.5,60.3c0.9,16.8-10.6,26.1-22.5,34.1c-21.5,14.6-26.1,34.6-14.3,61.2
				c21.5,48.4,59,84.9,111.5,108.7c7.5,3.4,14.7,5.2,21.1,5.2c12,0,21.9-5.8,29.5-17.3c10.9-16.5,23.2-24.6,37.5-24.6
				c11,0,23,4.7,36.8,14.3l43.7,31.7c2.3,1.9,4.7,3.7,6.9,5.4C592.2,546.4,604.7,558.2,596,582.8z"/>
		</g>
	</g>
	<g>
		<g>
			<path class="st0" d="M485.2,390.1c0.1-19.6-9.8-41.5-26.7-58.6c-17.2-17.4-38.2-27.2-57.6-26.7c0,0,0,0,0,0
				c-6.5,0.2-26.4,0.7-33.3,20.6c-3.9,11.4-1.3,19.7,1.7,24.6c6.1,10.1,16.7,13,25.2,14.4c20.1,3.2,29.1,13,31.2,33.7
				c1.7,16.9,14.1,29.2,29.4,29.2c1.2,0,2.4-0.1,3.5-0.2C466.9,426.1,486.1,420.5,485.2,390.1z M456.2,406.8c-0.3,0-0.7,0.1-1,0.1
				c-5.6,0-8.6-5.4-9.1-10.8c-3-29.7-19.2-47.1-48.2-51.8c-6.3-1-9.6-2.4-11-4.7c-0.4-0.6-1.6-2.6,0.1-7.5c1.9-5.6,6.4-6.7,14.5-6.9
				c13.8-0.3,29.3,7.2,42.5,20.6c13.2,13.4,21,30,20.9,44.3c0,0.2,0,0.3,0,0.5C465.3,405.7,459.4,406.5,456.2,406.8z"/>
		</g>
	</g>
	<g>
		<g>
			<path class="st0" d="M370.7,535.5c-18.5-13.8-36.6-29.6-55.4-48.3c-14.5-14.4-28.1-30.1-40.4-46.6c-3.4-4.5-9.8-5.4-14.3-2.1
				c-4.5,3.4-5.4,9.8-2.1,14.3c13,17.3,27.2,33.8,42.4,48.9c19.5,19.4,38.4,35.9,57.6,50.2c1.8,1.4,4,2,6.1,2c3.1,0,6.2-1.4,8.2-4.1
				C376.2,545.2,375.2,538.9,370.7,535.5z"/>
		</g>
	</g>
	<g>
		<g>
			<path class="st0" d="M251.3,405.7c-1.8-3-3.6-6-5.3-9c-2.8-4.9-9.1-6.5-13.9-3.7c-4.9,2.8-6.5,9.1-3.7,13.9
				c1.8,3.1,3.7,6.3,5.6,9.4c1.9,3.2,5.3,4.9,8.7,4.9c1.8,0,3.6-0.5,5.3-1.5C252.7,416.8,254.3,410.5,251.3,405.7z"/>
		</g>
	</g>
</g>
</svg>
